<?xml version="1.0" encoding="UTF-8"?>
<!DOCTYPE svg PUBLIC "-//W3C//DTD SVG 1.1//EN" "http://www.w3.org/Graphics/SVG/1.1/DTD/svg11.dtd">
<svg version="1.2" width="271.46mm" height="271.46mm" viewBox="0 0 27146 27146" preserveAspectRatio="xMidYMid" fill-rule="evenodd" stroke-width="28.222" stroke-linejoin="round" xmlns="http://www.w3.org/2000/svg" xmlns:ooo="http://xml.openoffice.org/svg/export" xmlns:xlink="http://www.w3.org/1999/xlink" xmlns:presentation="http://sun.com/xmlns/staroffice/presentation" xmlns:smil="http://www.w3.org/2001/SMIL20/" xmlns:anim="urn:oasis:names:tc:opendocument:xmlns:animation:1.0" xmlns:svg="urn:oasis:names:tc:opendocument:xmlns:svg-compatible:1.0" xml:space="preserve">
 <defs class="ClipPathGroup">
  <clipPath id="presentation_clip_path" clipPathUnits="userSpaceOnUse">
   <rect x="0" y="0" width="27146" height="27146"/>
  </clipPath>
  <clipPath id="presentation_clip_path_shrink" clipPathUnits="userSpaceOnUse">
   <rect x="27" y="27" width="27092" height="27092"/>
  </clipPath>
 </defs>
 <defs class="TextShapeIndex">
  <g ooo:slide="id1" ooo:id-list="id3 id4 id5 id6 id7 id8 id9"/>
 </defs>
 <defs class="EmbeddedBulletChars">
  <g id="bullet-char-template-57356" transform="scale(0.00048828125,-0.00048828125)">
   <path d="M 580,1141 L 1163,571 580,0 -4,571 580,1141 Z"/>
  </g>
  <g id="bullet-char-template-57354" transform="scale(0.00048828125,-0.00048828125)">
   <path d="M 8,1128 L 1137,1128 1137,0 8,0 8,1128 Z"/>
  </g>
  <g id="bullet-char-template-10146" transform="scale(0.00048828125,-0.00048828125)">
   <path d="M 174,0 L 602,739 174,1481 1456,739 174,0 Z M 1358,739 L 309,1346 659,739 1358,739 Z"/>
  </g>
  <g id="bullet-char-template-10132" transform="scale(0.00048828125,-0.00048828125)">
   <path d="M 2015,739 L 1276,0 717,0 1260,543 174,543 174,936 1260,936 717,1481 1274,1481 2015,739 Z"/>
  </g>
  <g id="bullet-char-template-10007" transform="scale(0.00048828125,-0.00048828125)">
   <path d="M 0,-2 C -7,14 -16,27 -25,37 L 356,567 C 262,823 215,952 215,954 215,979 228,992 255,992 264,992 276,990 289,987 310,991 331,999 354,1012 L 381,999 492,748 772,1049 836,1024 860,1049 C 881,1039 901,1025 922,1006 886,937 835,863 770,784 769,783 710,716 594,584 L 774,223 C 774,196 753,168 711,139 L 727,119 C 717,90 699,76 672,76 641,76 570,178 457,381 L 164,-76 C 142,-110 111,-127 72,-127 30,-127 9,-110 8,-76 1,-67 -2,-52 -2,-32 -2,-23 -1,-13 0,-2 Z"/>
  </g>
  <g id="bullet-char-template-10004" transform="scale(0.00048828125,-0.00048828125)">
   <path d="M 285,-33 C 182,-33 111,30 74,156 52,228 41,333 41,471 41,549 55,616 82,672 116,743 169,778 240,778 293,778 328,747 346,684 L 369,508 C 377,444 397,411 428,410 L 1163,1116 C 1174,1127 1196,1133 1229,1133 1271,1133 1292,1118 1292,1087 L 1292,965 C 1292,929 1282,901 1262,881 L 442,47 C 390,-6 338,-33 285,-33 Z"/>
  </g>
  <g id="bullet-char-template-9679" transform="scale(0.00048828125,-0.00048828125)">
   <path d="M 813,0 C 632,0 489,54 383,161 276,268 223,411 223,592 223,773 276,916 383,1023 489,1130 632,1184 813,1184 992,1184 1136,1130 1245,1023 1353,916 1407,772 1407,592 1407,412 1353,268 1245,161 1136,54 992,0 813,0 Z"/>
  </g>
  <g id="bullet-char-template-8226" transform="scale(0.00048828125,-0.00048828125)">
   <path d="M 346,457 C 273,457 209,483 155,535 101,586 74,649 74,723 74,796 101,859 155,911 209,963 273,989 346,989 419,989 480,963 531,910 582,859 608,796 608,723 608,648 583,586 532,535 482,483 420,457 346,457 Z"/>
  </g>
  <g id="bullet-char-template-8211" transform="scale(0.00048828125,-0.00048828125)">
   <path d="M -4,459 L 1135,459 1135,606 -4,606 -4,459 Z"/>
  </g>
  <g id="bullet-char-template-61548" transform="scale(0.00048828125,-0.00048828125)">
   <path d="M 173,740 C 173,903 231,1043 346,1159 462,1274 601,1332 765,1332 928,1332 1067,1274 1183,1159 1299,1043 1357,903 1357,740 1357,577 1299,437 1183,322 1067,206 928,148 765,148 601,148 462,206 346,322 231,437 173,577 173,740 Z"/>
  </g>
 </defs>
 <g>
  <g id="id2" class="Master_Slide">
   <g id="bg-id2" class="Background"/>
   <g id="bo-id2" class="BackgroundObjects"/>
  </g>
 </g>
 <g class="SlideGroup">
  <g>
   <g id="container-id1">
    <g id="id1" class="Slide" clip-path="url(#presentation_clip_path)">
     <g class="Page">
      <g class="com.sun.star.drawing.ClosedBezierShape">
       <g id="id3">
        <rect class="BoundingBox" stroke="none" fill="none" x="2803" y="17829" width="21537" height="5558"/>
        <path fill="rgb(255,255,255)" stroke="none" d="M 2804,17829 L 2804,18702 C 9983,24946 17159,24946 24338,18702 L 24338,17829 2804,17829 Z"/>
       </g>
      </g>
      <g class="com.sun.star.drawing.ClosedBezierShape">
       <g id="id4">
        <rect class="BoundingBox" stroke="none" fill="none" x="1322" y="2062" width="24499" height="23150"/>
        <path fill="rgb(63,175,70)" stroke="none" d="M 2804,17829 L 6826,18200 C 7037,18217 7170,18341 7223,18570 L 7329,20343 10821,20607 11033,18993 C 11068,18799 11200,18667 11429,18596 L 15713,18596 C 15942,18667 16074,18799 16109,18993 L 16321,20607 19813,20343 19919,18570 C 19972,18341 20105,18217 20316,18200 L 24338,17829 24338,11324 C 24867,10636 25361,9921 25819,9181 25202,8140 24470,7187 23623,6323 22865,6676 22142,7090 21454,7567 20748,6914 19972,6350 19126,5873 19249,4974 19320,4074 19337,3175 18297,2681 17212,2310 16083,2063 15624,2822 15219,3607 14866,4418 14002,4295 13140,4295 12276,4418 11923,3607 11518,2822 11059,2063 9930,2310 8845,2681 7805,3175 7822,4074 7893,4974 8016,5873 7170,6350 6394,6914 5688,7567 5000,7090 4277,6676 3519,6323 2672,7187 1940,8140 1323,9181 1781,9921 2275,10636 2804,11324 L 2804,17829 Z M 2804,18702 L 2804,19734 C 2804,27036 24311,27036 24311,19734 L 24311,18702 20766,19020 20634,20845 C 20598,21022 20475,21136 20263,21189 L 15977,21480 C 15765,21480 15624,21383 15554,21189 L 15289,19470 11853,19470 11588,21189 C 11518,21383 11377,21480 11165,21480 L 6879,21189 C 6667,21136 6544,21022 6508,20845 L 6376,19020 2804,18702 Z"/>
       </g>
      </g>
      <g class="com.sun.star.drawing.ClosedBezierShape">
       <g id="id5">
        <rect class="BoundingBox" stroke="none" fill="none" x="12804" y="12949" width="1535" height="3625"/>
        <path fill="rgb(255,255,255)" stroke="none" d="M 12805,15898 C 12885,16797 14257,16797 14337,15898 L 14337,13622 C 14257,12726 12885,12726 12805,13622 L 12805,15898 Z"/>
       </g>
      </g>
      <g class="com.sun.star.drawing.ClosedBezierShape">
       <g id="id6">
        <rect class="BoundingBox" stroke="none" fill="none" x="16824" y="11561" width="4764" height="4762"/>
        <path fill="rgb(255,255,255)" stroke="none" d="M 21586,13940 C 21586,14358 21476,14769 21267,15130 21058,15492 20758,15793 20396,16002 20034,16211 19623,16321 19205,16321 18787,16321 18376,16211 18014,16002 17652,15793 17352,15492 17143,15130 16934,14769 16824,14358 16824,13940 16824,13525 16934,13114 17143,12752 17352,12390 17652,12090 18014,11881 18376,11672 18787,11562 19205,11562 19623,11562 20034,11672 20396,11881 20758,12090 21058,12390 21267,12752 21476,13114 21586,13525 21586,13940 Z"/>
       </g>
      </g>
      <g class="com.sun.star.drawing.ClosedBezierShape">
       <g id="id7">
        <rect class="BoundingBox" stroke="none" fill="none" x="5555" y="11561" width="4764" height="4762"/>
        <path fill="rgb(255,255,255)" stroke="none" d="M 10318,13940 C 10318,14358 10208,14769 9999,15130 9790,15492 9490,15793 9128,16002 8766,16211 8355,16321 7937,16321 7519,16321 7108,16211 6746,16002 6384,15793 6084,15492 5875,15130 5666,14769 5556,14358 5556,13940 5556,13525 5666,13114 5875,12752 6084,12390 6384,12090 6746,11881 7108,11672 7519,11562 7937,11562 8355,11562 8766,11672 9128,11881 9490,12090 9790,12390 9999,12752 10208,13114 10318,13525 10318,13940 Z"/>
       </g>
      </g>
      <g class="com.sun.star.drawing.ClosedBezierShape">
       <g id="id8">
        <rect class="BoundingBox" stroke="none" fill="none" x="6560" y="12513" width="3177" height="3175"/>
        <path fill="rgb(65,64,66)" stroke="none" d="M 9736,14099 C 9736,14377 9662,14651 9523,14892 9383,15134 9183,15334 8942,15473 8700,15613 8427,15686 8149,15686 7870,15686 7596,15613 7355,15473 7114,15334 6913,15134 6774,14892 6635,14651 6561,14377 6561,14099 6561,13820 6635,13549 6774,13308 6913,13067 7114,12866 7355,12727 7596,12588 7870,12514 8149,12514 8427,12514 8700,12588 8942,12727 9183,12866 9384,13067 9523,13308 9663,13549 9736,13820 9736,14099 Z"/>
       </g>
      </g>
      <g class="com.sun.star.drawing.ClosedBezierShape">
       <g id="id9">
        <rect class="BoundingBox" stroke="none" fill="none" x="17406" y="12513" width="3177" height="3175"/>
        <path fill="rgb(65,64,66)" stroke="none" d="M 20581,14099 C 20581,14377 20507,14651 20368,14892 20229,15134 20028,15334 19787,15473 19546,15613 19272,15686 18993,15686 18715,15686 18442,15613 18200,15473 17959,15334 17759,15134 17619,14892 17480,14651 17406,14377 17406,14099 17406,13820 17479,13549 17619,13308 17758,13067 17959,12866 18200,12727 18442,12588 18715,12514 18993,12514 19272,12514 19546,12588 19787,12727 20028,12866 20229,13067 20368,13308 20507,13549 20581,13820 20581,14099 Z"/>
       </g>
      </g>
     </g>
    </g>
   </g>
  </g>
 </g>
</svg>

